<svg id="Layer_1" data-name="Layer 1" xmlns="http://www.w3.org/2000/svg" xmlns:xlink="http://www.w3.org/1999/xlink" viewBox="0 0 2101.31 2321.21"><defs><style>.cls-1{fill:url(#New_Gradient_Swatch);}.cls-2{fill:url(#New_Gradient_Swatch-2);}.cls-3{fill:url(#New_Gradient_Swatch-3);}.cls-4{fill:url(#New_Gradient_Swatch-4);}.cls-5{fill:url(#linear-gradient);}.cls-6{fill:url(#linear-gradient-2);}.cls-7{fill:url(#linear-gradient-3);}.cls-8{fill:url(#linear-gradient-4);}.cls-9{fill:url(#linear-gradient-5);}.cls-10{fill:url(#linear-gradient-6);}.cls-11{fill:url(#linear-gradient-7);}</style><linearGradient id="New_Gradient_Swatch" x1="1256.65" y1="1146.99" x2="1409.46" y2="1142.33" gradientUnits="userSpaceOnUse"><stop offset="0" stop-color="#55c3c3"/><stop offset="0.14" stop-color="#4bb3c0"/><stop offset="0.41" stop-color="#3088b7"/><stop offset="0.5" stop-color="#277ab4"/><stop offset="0.52" stop-color="#2d73b0"/><stop offset="0.64" stop-color="#4258a4"/><stop offset="0.75" stop-color="#51459b"/><stop offset="0.87" stop-color="#5a3a96"/><stop offset="1" stop-color="#5d3694"/></linearGradient><linearGradient id="New_Gradient_Swatch-2" x1="717.16" y1="1229.64" x2="816.81" y2="1229.64" xlink:href="#New_Gradient_Swatch"/><linearGradient id="New_Gradient_Swatch-3" x1="1266.02" y1="1196.12" x2="1531.11" y2="1201.03" xlink:href="#New_Gradient_Swatch"/><linearGradient id="New_Gradient_Swatch-4" x1="602.42" y1="1197.89" x2="881.2" y2="1197.89" xlink:href="#New_Gradient_Swatch"/><linearGradient id="linear-gradient" x1="239.1" y1="869.5" x2="1386.84" y2="902.76" gradientUnits="userSpaceOnUse"><stop offset="0" stop-color="#5d3694"/><stop offset="0.3" stop-color="#55c3c3"/><stop offset="0.4" stop-color="#4bb3c0"/><stop offset="0.59" stop-color="#3088b7"/><stop offset="0.65" stop-color="#277ab4"/><stop offset="0.67" stop-color="#2d73b0"/><stop offset="0.75" stop-color="#4258a4"/><stop offset="0.83" stop-color="#51459b"/><stop offset="0.91" stop-color="#5a3a96"/><stop offset="1" stop-color="#5d3694"/></linearGradient><linearGradient id="linear-gradient-2" x1="226.11" y1="1219.86" x2="1376.76" y2="1253.22" xlink:href="#linear-gradient"/><linearGradient id="linear-gradient-3" x1="218.55" y1="1521.92" x2="1366.41" y2="1555.19" xlink:href="#linear-gradient"/><linearGradient id="linear-gradient-4" x1="228.92" y1="1114.01" x2="1379.57" y2="1147.36" xlink:href="#linear-gradient"/><linearGradient id="linear-gradient-5" x1="241.9" y1="763.64" x2="1389.64" y2="796.91" xlink:href="#linear-gradient"/><linearGradient id="linear-gradient-6" x1="221.35" y1="1416.07" x2="1369.21" y2="1449.34" xlink:href="#linear-gradient"/><linearGradient id="linear-gradient-7" y1="1160.61" x2="2101.31" y2="1160.61" gradientUnits="userSpaceOnUse"><stop offset="0" stop-color="#277ab4"/><stop offset="0.07" stop-color="#2e72b0"/><stop offset="0.17" stop-color="#405aa5"/><stop offset="0.3" stop-color="#5d3694"/><stop offset="0.67" stop-color="#54c1c3"/><stop offset="0.72" stop-color="#54bcc1"/><stop offset="0.77" stop-color="#55afbd"/><stop offset="0.83" stop-color="#5799b5"/><stop offset="0.89" stop-color="#597aab"/><stop offset="0.95" stop-color="#5b539e"/><stop offset="0.99" stop-color="#5d3694"/></linearGradient></defs><path class="cls-1" d="M1278.49,1126.94q-.13,22.32-.29,45.17c6-1.7,11.91-3.42,17.84-5.21,1.78-.55,3.55-1.13,5.32-1.68v-45.37C1293.76,1122.31,1286.14,1124.69,1278.49,1126.94Z"/><path class="cls-2" d="M816.81,1207.45v-11q-8.35,1-16.63,2.11a595.53,595.53,0,0,0-83,16.67v47.69c3.5-1,7-2,10.53-2.83,10.77-3,21.69-5.29,32.57-7.76,10.9-2.07,21.85-4.36,32.72-6,8-1.31,15.91-2.41,23.83-3.45v-35.44Z"/><path class="cls-3" d="M1442.69,1543q0,63.26,8.14,95.65t36.47,47.43q28.35,15,91.5,13.5V1742H1143.74V1699.6q65.13-3.84,91.84-15.44t35.5-40.87c3-10,5.23-210.67,6.7-410.2,7.88-2.33,15.73-4.79,23.59-7.32v353.51q0,57.1-11.08,79.83t-35.82,40.49H1276q35.2,0,50.81-23.92t15.64-75.59V835q0-70.95-11.73-104.91t-57.31-33.93h-18.9q27.36,14.66,37.14,40.9t9.76,77.88v244.33c-1.79.54-3.54,1.12-5.32,1.67-5.73,1.74-11.45,3.38-17.21,5,.69-121.75,1-218.63,1-234.07v-3.08q0-57-11.07-82.9T1231,710.84q-26.7-9.24-87.27-14.66V653.77H1578.8v42.41q-65.13,2.3-92.16,14.66t-35.47,46.26q-8.49,34-8.48,113.39Z"/><path class="cls-4" d="M717.16,1157V866.63q0-74-4.57-107.58T689.82,709.3q-18.26-16.2-59.94-13.12,24.78,15.48,35.19,42t10.42,87.55V1562.3q0,67.14-13,94.48t-32.56,42.82h18.89q37.79,0,53.09-35.09t15.3-106V1321.11a601.08,601.08,0,0,1,83-16.67c5.5-.72,11.07-1.44,16.64-2.09v226.8q0,57.11,3.56,86t16.3,46.3q12.68,17.33,37.76,25t77.17,13.12V1742h-435V1699.6q46.88-1.53,71.95-7.35t39.72-22q14.7-16.2,20.21-45.48T654,1543V819.6q0-74.05-29-96.8T516.58,696.18V653.77h435v42.41q-64.47.81-92.47,16.19T824,761.75c-4.78,22.62-7.16,58.88-7.16,163.41V1137c-7.92,1-15.86,2.15-23.84,3.45-10.88,1.57-21.83,3.86-32.72,5.95-10.88,2.46-21.8,4.75-32.56,7.75C724.16,1155,720.66,1156,717.16,1157Z"/><path class="cls-5" d="M1792,774.77q-17.73,28.88-36.91,56.45c-12.94,18.24-26.18,36.17-40.17,53.35a893.59,893.59,0,0,1-89.81,95.95,841.37,841.37,0,0,1-101.44,79.55,852.86,852.86,0,0,1-82.05,47.88v58.76a814.87,814.87,0,0,0,105.82-66.19c9-6.91,18.13-13.5,26.82-20.84l13.15-10.79,12.85-11.2c8.66-7.34,16.82-15.34,25.2-23,4.15-3.89,8.11-8,12.16-12.05s8.14-8,12-12.23a849.49,849.49,0,0,0,86.59-106.93c6.42-9.58,12.86-19.13,18.92-29,6.24-9.69,12-19.71,17.9-29.66,11.38-20.13,22.36-40.49,32.26-61.45s19.26-42.16,27.83-63.71c8.4-21.63,16.27-43.46,23.11-65.65-9.82,20.81-19.79,41.45-30.63,61.52Q1809.59,745.77,1792,774.77Z"/><path class="cls-6" d="M1341.4,1151.38v60.18q-15.62,5.84-31.38,11.1c-3.19,1.06-6.41,2.09-9.63,3.11-3.93,1.27-7.9,2.53-11.87,3.76-2.63.82-5.25,1.64-7.91,2.39-1.25.41-2.53.76-3.78,1.1-27.32,7.69-54.88,14.18-82.48,19.82-21.4,4.4-42.91,8-64.25,11.34s-42.63,6.32-63.94,9.47c-42.7,5.74-85.57,10.56-128.33,14.76-36.72,3.52-85.69,9.6-121.54,13.84v.1c-5.56.65-11.12,1.37-16.62,2.09a600.41,600.41,0,0,0-82.95,16.67c-12.62,3.45-25.22,7.18-37.85,11.28-1.25.44-2.53.89-3.78,1.3v-57.51c1.41-.52,2.85-1,4.25-1.51,5.29-1.77,10.44-3.79,15.79-5.33,7.18-2.19,14.37-4.41,21.59-6.46,3.5-1,7-1.94,10.53-2.83,10.75-3,21.66-5.3,32.54-7.76,10.87-2.08,21.81-4.37,32.69-6,7.69-1.26,15.37-2.35,23-3.34v-.11c13.72-1.81,27.38-3.31,41-4.85l76.26-10.22q63.46-6.51,126.51-15.14c21-3,42.09-5.77,63.07-9s41.69-6.7,62.34-10.49c34.91-6.39,69.42-14.59,103.48-24.27a7.18,7.18,0,0,0,.85-.23c2-.59,4.09-1.2,6.12-1.82,1.78-.54,3.53-1.12,5.31-1.67Q1321,1158.76,1341.4,1151.38Z"/><path class="cls-7" d="M632.81,1292.23q-15.24,6.16-30.38,12.69-30.25,13.1-60,28c-9.91,4.95-19.76,10.13-29.56,15.45s-19.47,11-29.05,16.86-19.11,11.9-28.47,18.31-18.63,13-27.63,20.11a426.79,426.79,0,0,0-51.29,46.86,357.31,357.31,0,0,0-42.57,56.69,412.25,412.25,0,0,0-30.92,64.15c-8.38,22.14-15.43,44.55-21.61,67.08s-12,45-18,67.46c-5.72,22.53-11.92,44.86-18.23,67.25,9.43-21,17.94-42.56,26.43-64.08,8.28-21.6,16.3-43.29,24.72-64.65,16.72-42.71,35-84.29,60.45-119.28a318.34,318.34,0,0,1,42.23-48,389.58,389.58,0,0,1,49.6-39.29c34.95-23.7,72.86-42.78,111.61-60,19.4-8.55,39.11-16.44,59-24q14.88-5.71,29.89-11.11c1.54-.57,3.07-1.07,4.61-1.62v-57C646.63,1286.75,639.64,1289.42,632.81,1292.23Z"/><path class="cls-8" d="M1341.4,1045.45v60.17q-15.62,5.85-31.38,11.11c-3.19,1.06-6.41,2.08-9.63,3.11-7.59,2.46-15.22,4.85-22.84,7.11-31.38,9.26-63.1,16.88-94.92,23.37-21.37,4.41-42.87,8-64.22,11.35s-42.63,6.32-63.94,9.46c-42.72,5.74-85.57,10.56-128.33,14.76-37,3.56-74,6.22-109.85,10.53-5.56.65-11.12,1.37-16.62,2.08a599,599,0,0,0-82.95,16.68c-12.62,3.45-25.22,7.18-37.85,11.28-1.25.44-2.53.88-3.78,1.29v-57.51c1.41-.51,2.85-1,4.25-1.5,5.29-1.78,10.44-3.79,15.79-5.33,7.18-2.19,14.37-4.41,21.59-6.46,3.5-1,7-2,10.53-2.84,10.75-3,21.66-5.29,32.54-7.75,10.87-2.09,21.81-4.38,32.69-5.95,8-1.3,15.9-2.43,23.81-3.45,13.72-1.81,27.38-3.31,41-4.85l63.76-6.8c42.31-4.34,84.41-9.47,126.48-15.14,21-3,42.13-5.78,63.1-9s41.69-6.7,62.31-10.49q53.16-9.8,105-24.71c5.75-1.64,11.47-3.28,17.19-5,1.78-.55,3.53-1.13,5.31-1.67Q1321,1052.83,1341.4,1045.45Z"/><path class="cls-9" d="M1547.41,994.59c9-6.92,18.13-13.51,26.82-20.84L1587.38,963l12.85-11.2c8.66-7.34,16.82-15.35,25.2-23,4.15-3.89,8.11-8,12.16-12s8.14-8,12-12.23a849.49,849.49,0,0,0,86.59-106.93c6.42-9.58,12.86-19.13,18.92-29,6.24-9.69,12-19.71,17.9-29.66,11.38-20.14,22.36-40.49,32.26-61.46s19.26-42.16,27.83-63.7c8.4-21.63,16.27-43.46,23.11-65.66-9.82,20.82-19.79,41.46-30.63,61.52q-16,30.25-33.59,59.24t-36.91,56.45c-12.94,18.25-26.18,36.18-40.17,53.35a892.75,892.75,0,0,1-89.81,96,841.37,841.37,0,0,1-101.44,79.55,857.05,857.05,0,0,1-82.05,47.88v58.76A816,816,0,0,0,1547.41,994.59Z"/><path class="cls-10" d="M632.81,1186.29q-15.24,6.18-30.38,12.7-30.25,13.08-60,28c-9.91,5-19.76,10.14-29.56,15.46s-19.47,11-29.05,16.85-19.11,11.91-28.47,18.31-18.63,13-27.63,20.12a426.7,426.7,0,0,0-51.29,46.85,358.22,358.22,0,0,0-42.57,56.69,412.79,412.79,0,0,0-30.92,64.16c-8.38,22.14-15.43,44.55-21.61,67.08s-12,45-18,67.46c-5.72,22.53-11.92,44.86-18.23,67.25,9.43-21,17.94-42.56,26.43-64.08,8.28-21.6,16.3-43.3,24.72-64.66,16.72-42.71,35-84.28,60.45-119.27a317.86,317.86,0,0,1,42.23-48,389.65,389.65,0,0,1,49.6-39.3c34.95-23.69,72.86-42.77,111.61-59.94,19.4-8.55,39.11-16.44,59-24q14.88-5.73,29.89-11.12c1.54-.56,3.07-1.06,4.61-1.61v-57C646.63,1180.82,639.64,1183.48,632.81,1186.29Z"/><path class="cls-11" d="M2077.37,572.66,1827.9,429.58,1578.24,286.81q-125.07-71-251-140.47L1075.1,7.66,1061.19,0l-12.33,7.32L925.22,80.8q-61.89,36.61-124,72.88Q677,226.1,551.77,296.77c-83.58,47-167.27,93.7-251.71,139.12S130.88,526.21,45.68,570.28l-10.5,5.43-.56,13c-4.1,95.23-9.07,190.45-13.5,285.68-4.65,95.22-8.92,190.45-12.18,285.69S3.32,1350.61,2,1445.88c-.66,47.63-.93,95.27-1.27,142.9l-.5,71.46L.07,1731.7,0,1755.88l20.36,11.73q63.41,36.56,126.94,72.74t127.14,71.93L338,1948l63.61,35.33c42.36,23.61,84.76,46.84,127.07,70.05q127,69.43,253.09,136.75c84,44.76,167.6,88.77,250.45,131.12q62.92-30.69,126.37-62.32l127.24-63.49q127.64-64,256.47-130l128.94-66.28q64.59-33.29,129.24-67.09,64.71-33.63,129.39-67.85,64.77-34,129.42-68.56l21.69-11.55.86-26.08q2.37-71.43,4.3-142.87c1.37-47.63,2.75-95.25,3.84-142.88l3.49-142.88,2.81-142.89q2.53-142.89,3.61-285.8c.5-47.64.69-95.28.89-142.92l.42-142.92.09-28.49ZM1894.21,1790.47q-61,35.77-122,71.9T1650.13,1935l-122.42,73.46q-122.58,74-246.25,149.53l-124.11,76.27q-62.26,38.28-125,77.42c-82.27-55-163.8-108.38-244.92-161s-161.8-104.29-242.28-155.38c-40.25-25.47-80.41-50.92-120.62-76l-60.23-37.69-60.26-37.35c-40.12-25-80.35-49.55-120.55-74.13q-49.84-30.63-99.91-60.73l1.11-48.12L86,1589.86c.9-47.63,1.84-95.26,2.41-142.89q1.74-142.9.44-285.85c-.81-95.29-2.63-190.6-4.83-285.91-1.9-91.39-4.28-182.78-5.92-274.17q118-70.18,237.05-138.4c83.13-47.74,167-94.15,251-140.37s168.5-91.52,253.25-136.39Q883,152.21,946.81,119l113.61-58.94,231.13,145.78q121.77,76.48,244.34,151.64L1781.6,506.83,2003,641l-2.63,115.5c-1,47.63-2.06,95.26-2.79,142.89q-2.61,142.89-3.74,285.8l-.86,142.92-.19,142.92c-.13,47.64,0,95.28.17,142.93q.12,59.25.48,118.5Q1943.82,1761.35,1894.21,1790.47Z"/></svg>