<svg id="Layer_1" data-name="Layer 1" xmlns="http://www.w3.org/2000/svg" xmlns:xlink="http://www.w3.org/1999/xlink" viewBox="0 0 2980 3201.56"><defs><style>.cls-1{fill:#fff;}.cls-2{fill:url(#New_Gradient_Swatch);}.cls-3{fill:url(#New_Gradient_Swatch-2);}.cls-4{fill:url(#New_Gradient_Swatch-3);}.cls-5{fill:url(#New_Gradient_Swatch-4);}.cls-6{fill:url(#linear-gradient);}.cls-7{fill:url(#linear-gradient-2);}.cls-8{fill:url(#linear-gradient-3);}.cls-9{fill:url(#linear-gradient-4);}.cls-10{fill:url(#linear-gradient-5);}.cls-11{fill:url(#linear-gradient-6);}.cls-12{fill:url(#linear-gradient-7);}</style><linearGradient id="New_Gradient_Swatch" x1="1706.46" y1="1575.56" x2="1859.27" y2="1570.9" gradientUnits="userSpaceOnUse"><stop offset="0" stop-color="#55c3c3"/><stop offset="0.14" stop-color="#4bb3c0"/><stop offset="0.41" stop-color="#3088b7"/><stop offset="0.5" stop-color="#277ab4"/><stop offset="0.52" stop-color="#2d73b0"/><stop offset="0.64" stop-color="#4258a4"/><stop offset="0.75" stop-color="#51459b"/><stop offset="0.87" stop-color="#5a3a96"/><stop offset="1" stop-color="#5d3694"/></linearGradient><linearGradient id="New_Gradient_Swatch-2" x1="1166.97" y1="1658.21" x2="1266.62" y2="1658.21" xlink:href="#New_Gradient_Swatch"/><linearGradient id="New_Gradient_Swatch-3" x1="1715.82" y1="1624.69" x2="1980.92" y2="1629.6" xlink:href="#New_Gradient_Swatch"/><linearGradient id="New_Gradient_Swatch-4" x1="1052.23" y1="1626.45" x2="1331.01" y2="1626.45" xlink:href="#New_Gradient_Swatch"/><linearGradient id="linear-gradient" x1="688.91" y1="1298.06" x2="1836.65" y2="1331.33" gradientUnits="userSpaceOnUse"><stop offset="0" stop-color="#5d3694"/><stop offset="0.3" stop-color="#55c3c3"/><stop offset="0.4" stop-color="#4bb3c0"/><stop offset="0.59" stop-color="#3088b7"/><stop offset="0.65" stop-color="#277ab4"/><stop offset="0.67" stop-color="#2d73b0"/><stop offset="0.75" stop-color="#4258a4"/><stop offset="0.83" stop-color="#51459b"/><stop offset="0.91" stop-color="#5a3a96"/><stop offset="1" stop-color="#5d3694"/></linearGradient><linearGradient id="linear-gradient-2" x1="675.91" y1="1648.43" x2="1826.57" y2="1681.78" xlink:href="#linear-gradient"/><linearGradient id="linear-gradient-3" x1="668.36" y1="1950.49" x2="1816.22" y2="1983.76" xlink:href="#linear-gradient"/><linearGradient id="linear-gradient-4" x1="678.72" y1="1542.58" x2="1829.37" y2="1575.93" xlink:href="#linear-gradient"/><linearGradient id="linear-gradient-5" x1="691.7" y1="1192.21" x2="1839.45" y2="1225.48" xlink:href="#linear-gradient"/><linearGradient id="linear-gradient-6" x1="671.16" y1="1844.63" x2="1819.02" y2="1877.91" xlink:href="#linear-gradient"/><linearGradient id="linear-gradient-7" x1="449.81" y1="1589.17" x2="2551.12" y2="1589.17" gradientUnits="userSpaceOnUse"><stop offset="0" stop-color="#277ab4"/><stop offset="0.07" stop-color="#2e72b0"/><stop offset="0.17" stop-color="#405aa5"/><stop offset="0.3" stop-color="#5d3694"/><stop offset="0.67" stop-color="#54c1c3"/><stop offset="0.72" stop-color="#54bcc1"/><stop offset="0.77" stop-color="#55afbd"/><stop offset="0.83" stop-color="#5799b5"/><stop offset="0.89" stop-color="#597aab"/><stop offset="0.95" stop-color="#5b539e"/><stop offset="0.99" stop-color="#5d3694"/></linearGradient></defs><path class="cls-1" d="M382,557.78l842-476s258-184,556,0l982,550s218,138,218,338v1298s-20,274-226,342l-1050,542s-246,112-480,0l-1042-572s-182-118-182-310v-1306s22-222,202-314Z"/><path class="cls-2" d="M1728.3,1555.51c-.09,14.87-.19,30-.29,45.17q8.94-2.55,17.84-5.22c1.78-.54,3.55-1.12,5.32-1.68v-45.36C1743.57,1550.87,1736,1553.25,1728.3,1555.51Z"/><path class="cls-3" d="M1266.62,1636v-11c-5.57.67-11.12,1.36-16.63,2.11a595.24,595.24,0,0,0-83,16.67v47.69c3.5-1,7-2,10.53-2.83,10.77-3,21.69-5.29,32.57-7.76,10.9-2.07,21.84-4.35,32.72-5.94,8-1.31,15.91-2.42,23.83-3.45V1636Z"/><path class="cls-4" d="M1892.5,1971.59q0,63.26,8.14,95.65t36.47,47.43q28.34,15,91.5,13.5v42.4H1593.55v-42.4q65.13-3.86,91.84-15.45t35.5-40.87c3-10,5.23-210.67,6.7-410.2,7.88-2.32,15.73-4.78,23.58-7.31v353.51q0,57.09-11.07,79.82t-35.82,40.5h21.49q35.19,0,50.8-23.93t15.64-75.58V1263.58q0-70.93-11.73-104.91t-57.3-33.93h-18.9q27.36,14.65,37.13,40.9t9.76,77.88v244.33c-1.78.55-3.53,1.13-5.31,1.68-5.73,1.74-11.45,3.38-17.21,5,.69-121.76,1-218.63,1-234.08v-3.07q0-57.06-11.07-82.91t-37.79-35.09q-26.7-9.23-87.27-14.66v-42.41h435.06v42.41q-65.13,2.31-92.16,14.66T1901,1185.67q-8.49,34-8.48,113.38Z"/><path class="cls-5" d="M1167,1585.51V1295.19q0-74-4.56-107.57t-22.78-49.76q-18.24-16.2-59.93-13.12a85.23,85.23,0,0,1,35.19,42q10.36,26.65,10.42,87.55v736.54q0,67.16-13,94.49t-32.56,42.82h18.89q37.77,0,53.09-35.1T1167,1987V1749.68a599.93,599.93,0,0,1,83-16.68c5.51-.72,11.08-1.43,16.65-2.08v226.8q0,57.09,3.56,86t16.3,46.31q12.67,17.33,37.76,25t77.17,13.13v42.4h-435v-42.4q46.88-1.55,71.94-7.35t39.73-22q14.68-16.2,20.21-45.49t5.54-81.77V1248.17q0-74.07-29-96.81t-108.42-26.62v-42.41h435v42.41q-64.47.83-92.47,16.2t-35.16,49.38c-4.79,22.62-7.16,58.87-7.16,163.41v211.79c-7.92,1-15.86,2.16-23.84,3.46-10.89,1.57-21.84,3.86-32.72,5.94-10.89,2.46-21.8,4.75-32.56,7.76C1174,1583.57,1170.47,1584.52,1167,1585.51Z"/><path class="cls-6" d="M2241.78,1203.33q-17.73,28.89-36.91,56.45c-12.95,18.25-26.18,36.17-40.17,53.35a893.65,893.65,0,0,1-89.81,95.95,841.45,841.45,0,0,1-101.44,79.56,854.86,854.86,0,0,1-82,47.87v58.77a816,816,0,0,0,105.82-66.19c9-6.92,18.13-13.51,26.81-20.84l13.16-10.79,12.85-11.2c8.65-7.34,16.82-15.35,25.19-23,4.16-3.89,8.12-8,12.17-12s8.14-8,12-12.23A848.87,848.87,0,0,0,2186,1332c6.42-9.58,12.86-19.12,18.91-29,6.25-9.68,12.05-19.7,17.9-29.65,11.39-20.14,22.37-40.49,32.27-61.46s19.26-42.16,27.83-63.71c8.4-21.63,16.27-43.45,23.11-65.65-9.82,20.82-19.8,41.45-30.64,61.52Q2259.39,1174.35,2241.78,1203.33Z"/><path class="cls-7" d="M1791.2,1579.94v60.18q-15.6,5.85-31.37,11.11c-3.19,1.06-6.41,2.08-9.63,3.11-3.94,1.26-7.91,2.53-11.87,3.76-2.63.82-5.26,1.64-7.91,2.39-1.25.41-2.53.75-3.78,1.09-27.32,7.69-54.88,14.18-82.48,19.82-21.41,4.41-42.91,8-64.25,11.35s-42.63,6.32-64,9.46c-42.69,5.74-85.57,10.56-128.32,14.76-36.72,3.52-85.69,9.61-121.54,13.84v.11c-5.56.65-11.13,1.36-16.63,2.08a598.53,598.53,0,0,0-82.94,16.68c-12.63,3.45-25.22,7.17-37.85,11.27-1.25.45-2.53.89-3.78,1.3v-57.51c1.41-.51,2.84-1,4.25-1.5,5.28-1.78,10.44-3.8,15.78-5.33,7.19-2.19,14.38-4.41,21.6-6.46,3.5-1,7-2,10.53-2.84,10.75-3,21.66-5.3,32.54-7.76,10.87-2.08,21.81-4.37,32.69-5.94,7.68-1.27,15.37-2.36,23-3.35v-.1c13.72-1.81,27.37-3.32,41-4.86l76.26-10.21c42.31-4.34,84.41-9.47,126.51-15.14,21-3,42.09-5.78,63.06-9s41.69-6.7,62.35-10.49c34.91-6.39,69.41-14.59,103.48-24.26.28-.07.56-.14.84-.24,2-.58,4.1-1.2,6.13-1.81,1.78-.55,3.53-1.13,5.31-1.68Q1770.83,1587.33,1791.2,1579.94Z"/><path class="cls-8" d="M1082.61,1720.79q-15.22,6.17-30.37,12.69-30.26,13.1-60,28c-9.91,5-19.76,10.14-29.56,15.46s-19.47,11-29.06,16.85-19.11,11.91-28.47,18.31-18.62,13-27.63,20.12a426.55,426.55,0,0,0-51.28,46.85,356.71,356.71,0,0,0-42.57,56.69,411.45,411.45,0,0,0-30.92,64.16c-8.38,22.13-15.43,44.54-21.61,67.08s-12,45-18,67.46c-5.72,22.52-11.92,44.86-18.23,67.24,9.42-21,17.94-42.56,26.43-64.07,8.27-21.61,16.3-43.3,24.71-64.66,16.73-42.71,35-84.28,60.46-119.27a317.31,317.31,0,0,1,42.23-48,388.07,388.07,0,0,1,49.6-39.3c34.94-23.69,72.85-42.77,111.6-59.94,19.4-8.56,39.11-16.45,59-24q14.86-5.73,29.89-11.12c1.54-.56,3.07-1.07,4.61-1.61v-57C1096.43,1715.31,1089.45,1718,1082.61,1720.79Z"/><path class="cls-9" d="M1791.2,1474v60.18q-15.6,5.83-31.37,11.1c-3.19,1.06-6.41,2.09-9.63,3.11-7.59,2.46-15.22,4.86-22.84,7.11-31.38,9.26-63.1,16.88-94.92,23.38-21.37,4.4-42.88,8-64.22,11.34s-42.63,6.32-63.94,9.47c-42.73,5.74-85.57,10.55-128.33,14.76-37,3.55-74,6.22-109.85,10.52-5.56.65-11.13,1.37-16.63,2.09a600,600,0,0,0-82.94,16.67c-12.63,3.45-25.22,7.18-37.85,11.28-1.25.44-2.53.89-3.78,1.3v-57.51c1.41-.52,2.84-1,4.25-1.51,5.28-1.77,10.44-3.79,15.78-5.33,7.19-2.18,14.38-4.41,21.6-6.46,3.5-1,7-1.94,10.53-2.83,10.75-3,21.66-5.3,32.54-7.76,10.87-2.08,21.81-4.37,32.69-5.94,8-1.3,15.9-2.43,23.81-3.46,13.72-1.81,27.38-3.31,41-4.85l63.76-6.8q63.47-6.51,126.48-15.14c21-3,42.12-5.77,63.09-9s41.7-6.7,62.32-10.49c35.44-6.53,70.41-14.84,105-24.71,5.75-1.64,11.47-3.28,17.19-5,1.78-.55,3.53-1.13,5.31-1.68Q1770.83,1481.4,1791.2,1474Z"/><path class="cls-10" d="M1997.22,1423.15c9-6.91,18.13-13.5,26.81-20.84l13.16-10.78,12.85-11.21c8.65-7.34,16.82-15.34,25.19-23,4.16-3.89,8.12-8,12.17-12s8.14-8,12-12.23A848.78,848.78,0,0,0,2186,1226.08c6.42-9.58,12.86-19.13,18.91-29,6.25-9.69,12.05-19.7,17.9-29.65,11.39-20.14,22.37-40.49,32.27-61.46s19.26-42.16,27.83-63.71c8.4-21.63,16.27-43.46,23.11-65.65-9.82,20.81-19.8,41.45-30.64,61.52q-16,30.25-33.58,59.24t-36.91,56.45c-12.95,18.24-26.18,36.17-40.17,53.35a894.6,894.6,0,0,1-89.81,96,842.45,842.45,0,0,1-101.44,79.56,854.86,854.86,0,0,1-82,47.87v58.76A814.87,814.87,0,0,0,1997.22,1423.15Z"/><path class="cls-11" d="M1082.61,1614.86q-15.22,6.17-30.37,12.69-30.26,13.1-60,28c-9.91,5-19.76,10.13-29.56,15.45s-19.47,11-29.06,16.86-19.11,11.9-28.47,18.31-18.62,13-27.63,20.11a427.47,427.47,0,0,0-51.28,46.86,356.71,356.71,0,0,0-42.57,56.69A411.35,411.35,0,0,0,752.74,1894c-8.38,22.14-15.43,44.55-21.61,67.09s-12,45-18,67.46c-5.72,22.52-11.92,44.85-18.23,67.24,9.42-21,17.94-42.56,26.43-64.08,8.27-21.6,16.3-43.29,24.71-64.65,16.73-42.71,35-84.28,60.46-119.28a317.79,317.79,0,0,1,42.23-48,388.88,388.88,0,0,1,49.6-39.29c34.94-23.7,72.85-42.78,111.6-59.94,19.4-8.56,39.11-16.45,59-24q14.86-5.71,29.89-11.11c1.54-.57,3.07-1.07,4.61-1.61v-57C1096.43,1609.38,1089.45,1612.05,1082.61,1614.86Z"/><path class="cls-12" d="M2527.17,1001.22,2277.71,858.14,2028.05,715.38Q1903,644.4,1777,574.9L1524.91,436.22,1511,428.56l-12.33,7.33L1375,509.37q-61.89,36.6-124,72.87-124.24,72.42-249.47,143.09C918,772.28,834.31,819,749.87,864.45s-169.18,90.32-254.38,134.4l-10.5,5.43-.56,13c-4.1,95.23-9.08,190.45-13.5,285.68-4.65,95.23-8.92,190.45-12.19,285.7s-5.62,190.49-6.9,285.76c-.66,47.63-.94,95.27-1.27,142.91l-.5,71.45-.2,71.46-.06,24.18,20.35,11.73c42.27,24.37,84.54,48.73,127,72.74s84.7,48.2,127.14,71.93l63.58,35.68,63.61,35.34c42.35,23.6,84.76,46.83,127.06,70q127,69.42,253.1,136.74c84,44.76,167.59,88.78,250.44,131.13q62.94-30.71,126.37-62.33L1735.66,2624q127.62-64,256.46-130l129-66.28q64.59-33.27,129.24-67.08Q2315,2327,2379.7,2292.8q64.77-34,129.42-68.57l21.69-11.54.86-26.09q2.35-71.43,4.29-142.87c1.37-47.62,2.76-95.25,3.85-142.88L2543.3,1758l2.81-142.89q2.52-142.89,3.61-285.8c.5-47.64.69-95.27.89-142.91l.42-142.92.09-28.5ZM2344,2219q-61,35.79-122,71.9t-122.13,72.66l-122.41,73.46q-122.6,73.95-246.25,149.54l-124.11,76.26q-62.28,38.28-125,77.42c-82.28-55-163.81-108.38-244.92-161S1075.45,2475,995,2423.91c-40.25-25.48-80.41-50.93-120.62-76l-60.23-37.7-60.27-37.34c-40.12-25-80.34-49.56-120.54-74.14q-49.84-30.61-99.91-60.72l1.11-48.13,1.33-71.44c.89-47.63,1.84-95.26,2.41-142.9q1.74-142.9.44-285.84c-.82-95.3-2.63-190.6-4.84-285.91-1.89-91.39-4.27-182.79-5.92-274.17q118-70.18,237.06-138.4c83.12-47.75,167-94.16,251-140.37s168.5-91.52,253.25-136.4q63.55-33.68,127.38-66.87l113.6-59,231.14,145.79q121.77,76.47,244.33,151.64L2231.4,935.4l221.42,134.2-2.62,115.5c-1,47.62-2.07,95.25-2.79,142.89q-2.61,142.89-3.74,285.8l-.86,142.91-.19,142.92c-.13,47.64,0,95.29.17,142.93q.12,59.25.48,118.5Q2393.62,2189.91,2344,2219Z"/></svg>